<?xml version="1.0" encoding="UTF-8" standalone="no"?>
<!-- Created with Inkscape (http://www.inkscape.org/) -->

<svg
   xmlns:dc="http://purl.org/dc/elements/1.1/"
   xmlns:cc="http://creativecommons.org/ns#"
   xmlns:rdf="http://www.w3.org/1999/02/22-rdf-syntax-ns#"
   xmlns:svg="http://www.w3.org/2000/svg"
   xmlns="http://www.w3.org/2000/svg"
   xmlns:xlink="http://www.w3.org/1999/xlink"
   xmlns:sodipodi="http://sodipodi.sourceforge.net/DTD/sodipodi-0.dtd"
   xmlns:inkscape="http://www.inkscape.org/namespaces/inkscape"
   width="720.99756"
   height="235.04361"
   viewBox="0 0 190.76393 62.188623"
   version="1.1"
   id="svg976"
   inkscape:version="0.92.1 r15371"
   sodipodi:docname="xfce_logotype.svg">
  <defs
     id="defs970">
    <radialGradient
       inkscape:collect="always"
       xlink:href="#linearGradient3891"
       id="radialGradient4125"
       gradientUnits="userSpaceOnUse"
       gradientTransform="matrix(0.52916666,-1.8068554e-7,2.5031719e-7,0.73309416,-259.32184,-513.28922)"
       cx="630"
       cy="783.375"
       fx="630"
       fy="783.375"
       r="58.5" />
    <linearGradient
       inkscape:collect="always"
       id="linearGradient3891">
      <stop
         style="stop-color:#ffffff;stop-opacity:1;"
         offset="0"
         id="stop3893" />
      <stop
         style="stop-color:#ffffff;stop-opacity:0;"
         offset="1"
         id="stop3895" />
    </linearGradient>
    <radialGradient
       inkscape:collect="always"
       xlink:href="#linearGradient3891"
       id="radialGradient4123"
       gradientUnits="userSpaceOnUse"
       gradientTransform="matrix(0.50663937,-2.7143442e-8,3.0300551e-8,0.56556764,-203.01969,-373.4963)"
       cx="464.79211"
       cy="779.32928"
       fx="464.79211"
       fy="779.32928"
       r="81.871712" />
    <radialGradient
       inkscape:collect="always"
       xlink:href="#linearGradient3891"
       id="radialGradient4121"
       gradientUnits="userSpaceOnUse"
       gradientTransform="matrix(0.50215625,-1.7412749e-7,1.9799064e-7,0.57097382,-172.57759,-393.07184)"
       cx="305.6767"
       cy="797.10925"
       fx="305.6767"
       fy="797.10925"
       r="58.5" />
    <radialGradient
       inkscape:collect="always"
       xlink:href="#linearGradient3891"
       id="radialGradient4119"
       gradientUnits="userSpaceOnUse"
       gradientTransform="matrix(0.42039248,4.5767855e-8,-4.366401e-8,0.40106801,-103.3823,-239.28141)"
       cx="68.983086"
       cy="759.005"
       fx="68.983086"
       fy="759.005"
       r="102.92188" />
    <filter
       inkscape:collect="always"
       id="filter3721">
      <feGaussianBlur
         inkscape:collect="always"
         stdDeviation="4.6802061"
         id="feGaussianBlur3723" />
    </filter>
  </defs>
  <sodipodi:namedview
     id="base"
     pagecolor="#ffffff"
     bordercolor="#666666"
     borderopacity="1.0"
     inkscape:pageopacity="0.0"
     inkscape:pageshadow="2"
     inkscape:zoom="0.49497475"
     inkscape:cx="239.19091"
     inkscape:cy="-70.603147"
     inkscape:document-units="mm"
     inkscape:current-layer="layer1"
     showgrid="false"
     units="px"
     fit-margin-top="0"
     fit-margin-left="0"
     fit-margin-right="10"
     fit-margin-bottom="10"
     inkscape:window-width="1920"
     inkscape:window-height="1151"
     inkscape:window-x="0"
     inkscape:window-y="0"
     inkscape:window-maximized="1" />
  <metadata
     id="metadata973">
    <rdf:RDF>
      <cc:Work
         rdf:about="">
        <dc:format>image/svg+xml</dc:format>
        <dc:type
           rdf:resource="http://purl.org/dc/dcmitype/StillImage" />
        <dc:title></dc:title>
      </cc:Work>
    </rdf:RDF>
  </metadata>
  <g
     inkscape:label="Layer 1"
     inkscape:groupmode="layer"
     id="layer1"
     transform="translate(82.579327,-57.279192)">
    <path
       inkscape:connector-curvature="0"
       id="path3699"
       d="m 92.345612,226.30209 -21.24585,-21.2458 34.158048,-34.1688 34.15806,-34.16884 -24.33132,-25.83533 C 101.70234,96.673884 87.434682,81.641904 83.378642,77.478924 l -7.37461,-7.56905 24.460518,-23.70276 24.46051,-23.70275 11.33616,13.89034 c 6.23488,7.63969 18.69554,22.9495 27.69037,34.02181 8.99483,11.07231 16.71171,20.13147 17.14863,20.13147 0.43692,0 9.46583,-10.6875 20.06425,-23.75 26.60067,-32.78521 34.34915,-42.14349 34.94141,-42.2008 0.27969,-0.0271 10.36823,9.81815 22.41898,21.87824 l 21.91044,21.92744 -24.45342,25.32256 C 242.5325,107.65283 228.42187,122.32163 224.62492,126.32277 l -6.90355,7.27479 4.48316,4.72521 c 2.46573,2.59886 12.30776,13.05022 21.87118,23.22522 9.56341,10.175 22.13263,23.3347 27.9316,29.2438 l 10.54358,10.7438 -22.30939,22.39 -22.30939,22.39 -30.99252,-35.3838 c -17.04589,-19.4611 -31.36136,-35.3838 -31.81217,-35.3838 -0.4508,0 -14.16446,16.2 -30.47479,36 -16.31035,19.8 -29.97152,36 -30.35817,36 -0.38665,0 -10.26363,-9.5606 -21.948848,-21.2459 z M 309.09736,142.54798 V 38.547984 h 60.5 60.5 v 25.5 25.5 h -28.5 -28.5 v 16.999996 17 h 27 27 v 23.50001 23.5 h -27 -27 v 38 38 h -32 -32 z m 247.5,102.36941 c -2.2,-0.2309 -8.84328,-1.3232 -14.76285,-2.4273 -47.88453,-8.9312 -75.42119,-36.7785 -80.781,-81.6921 -5.33572,-44.7118 25.85107,-84.569796 87.80142,-112.213806 17.49947,-7.80876 58.45252,-21.15945 60.0392,-19.57277 0.22434,0.22434 2.83353,12.24935 5.7982,26.72223 2.96467,14.47289 5.61573,27.28115 5.89124,28.46281 0.45642,1.95757 -0.0983,2.25048 -6.24264,3.29673 -11.27829,1.92041 -28.63113,6.74475 -39.23951,10.90915 -20.76041,8.149636 -35.08361,19.458116 -41.76387,32.973476 -3.53257,7.14702 -3.74019,8.09829 -3.74019,17.13718 0,8.8024 0.26434,10.1073 3.29514,16.2669 6.8991,14.0214 22.32687,21.4104 49.60843,23.7598 11.48608,0.9891 34.66485,0.137 42.84643,-1.5751 l 2.75,-0.5755 v 27.0604 27.0604 l -2.25,0.5348 c -9.85495,2.3423 -24.94739,3.7172 -43.75,3.9857 -11.825,0.1688 -23.3,0.118 -25.5,-0.113 z m 104.5,-104.86941 V 34.547984 h 60 60 v 24.5 24.5 h -28.5 -28.5 v 15.5 15.499996 h 24.5 24.5 v 24.5 24.50001 h -24.5 -24.5 v 15 15 h 29 29 v 26 26 h -60.5 -60.5 z"
       style="opacity:0.7;fill:#000000;fill-opacity:1;filter:url(#filter3721)"
       transform="matrix(0.26458333,0,0,0.26458333,-99.263728,51.875513)" />
    <path
       inkscape:connector-curvature="0"
       style="fill:#00aade;fill-opacity:1;stroke-width:0.26458332"
       d="m -76.95803,111.20067 -5.621297,-5.62128 9.03765,-9.040496 9.037651,-9.040505 -6.43766,-6.835598 C -74.482395,76.903211 -78.25738,72.926 -79.33054,71.824544 l -1.951199,-2.002644 6.471846,-6.271355 6.471842,-6.271353 2.999357,3.675152 c 1.649645,2.021335 4.946528,6.072056 7.32641,9.001604 2.379882,2.929549 4.42164,5.326452 4.537242,5.326452 0.115602,0 2.504501,-2.827735 5.308666,-6.283854 7.038094,-8.674421 9.088213,-11.150466 9.244915,-11.165629 0.074,-0.0072 2.743261,2.597719 5.931688,5.788618 l 5.797137,5.801635 -6.469967,6.699928 c -3.558482,3.684959 -7.291919,7.566079 -8.296529,8.624714 l -1.826564,1.924788 1.186169,1.250212 c 0.652391,0.687615 3.256428,3.452871 5.78675,6.145006 2.530319,2.692136 5.855925,6.173972 7.390236,7.737422 l 2.789655,2.84263 -5.902693,5.92402 -5.902692,5.92402 -8.200105,-9.36196 c -4.510058,-5.14908 -8.297693,-9.361965 -8.41697,-9.361965 -0.119274,0 -3.74768,4.286245 -8.063121,9.524995 -4.315444,5.23875 -7.929962,9.525 -8.032263,9.525 -0.102301,0 -2.715585,-2.52957 -5.8073,-5.62131 z M -19.609132,89.040732 V 61.524066 H -3.6018408 12.405452 v 6.746876 6.746875 h -7.5406298 -7.540621 v 4.497915 4.497917 h 7.143751 7.1437498 v 6.217711 6.217708 h -7.1437498 -7.143751 v 10.054162 10.05417 h -8.4666672 -8.466666 z m 65.484374,27.085238 c -0.58208,-0.0611 -2.33978,-0.3501 -3.906,-0.64222 -12.66945,-2.36305 -19.95519,-9.73098 -21.37331,-21.614369 -1.41174,-11.829997 6.83976,-22.375759 23.23079,-29.689903 4.63007,-2.066068 15.46557,-5.598438 15.88537,-5.178629 0.0594,0.05936 0.74971,3.240974 1.53411,7.070257 0.7844,3.829285 1.48583,7.218137 1.55873,7.530785 0.12076,0.51794 -0.026,0.595439 -1.6517,0.87226 -2.98405,0.508108 -7.57532,1.784548 -10.38212,2.886379 -5.49286,2.156258 -9.28254,5.148293 -11.05003,8.724232 -0.93466,1.890983 -0.98959,2.142673 -0.98959,4.534212 0,2.328969 0.0699,2.674224 0.87184,4.303951 1.82539,3.709829 5.90732,5.664835 13.12556,6.286445 3.03903,0.2617 9.17175,0.0362 11.33645,-0.41674 l 0.72761,-0.15227 v 7.15973 7.15973 l -0.59531,0.1415 c -2.60746,0.61973 -6.60067,0.98351 -11.57552,1.05455 -3.1287,0.0447 -6.1648,0.0312 -6.74688,-0.0299 z M 73.524202,88.379274 V 60.465733 h 15.875 15.874998 v 6.482292 6.482292 h -7.540628 -7.54062 v 4.101041 4.101041 h 6.48229 6.482288 v 6.482291 6.482295 h -6.482288 -6.48229 v 3.96875 3.968745 h 7.67292 7.672908 v 6.87917 6.87917 H 89.531492 73.524202 Z"
       id="path2557" />
    <path
       inkscape:connector-curvature="0"
       style="fill:url(#radialGradient4119);fill-opacity:1;stroke-width:0.26458332"
       d="m -74.435766,63.933513 c -2.031229,1.965082 -4.062457,3.930166 -6.093685,5.895248 5.645633,5.833443 11.195768,11.760135 16.759699,17.677472 -6.024094,6.022716 -12.046481,12.047138 -18.06608,18.074347 3.561457,3.44681 7.096883,7.33974 10.707356,10.45104 5.334066,-6.12409 10.34624,-12.63993 15.759245,-18.710999 1.187217,-0.208147 1.71201,1.516754 2.58767,2.09545 4.855006,5.370159 9.58003,10.872849 14.370468,16.309629 3.681513,-3.691 7.360851,-7.38417 11.038086,-11.07943 -5.829446,-5.878237 -11.464065,-11.97587 -17.140039,-17.975128 5.489596,-5.783844 11.044782,-11.505013 16.586067,-17.239256 -3.650644,-3.635145 -7.278558,-7.349083 -10.97194,-10.872722 -4.904618,5.617462 -9.312568,11.744516 -14.337109,17.197917 -0.996842,0.166661 -1.516848,-1.342895 -2.237486,-1.905638 -4.355502,-5.219639 -8.596313,-10.534023 -12.90991,-15.788373 -2.017448,1.956813 -4.034896,3.91363 -6.052342,5.870443 z"
       id="path3857" />
    <path
       inkscape:connector-curvature="0"
       style="fill:url(#radialGradient4121);fill-opacity:1;stroke-width:0.26458332"
       d="m -19.079973,89.044124 c 0,8.995833 0,17.991666 0,26.987496 5.291666,0 10.5833332,0 15.8750002,0 0,-6.70277 0,-13.40555 0,-20.108329 4.762495,0 9.524995,0 14.2874948,0 0,-3.79236 0,-7.584723 0,-11.377084 -4.7624998,0 -9.5249998,0 -14.2874948,0 0,-3.351389 0,-6.702775 0,-10.054165 5.027085,0 10.054165,0 15.0812448,0 0,-4.14514 0,-8.290277 0,-12.435417 -10.3187498,0 -20.6374948,0 -30.956245,0 0,8.995833 0,17.991666 0,26.987499 z"
       id="path3855" />
    <path
       inkscape:connector-curvature="0"
       style="fill:url(#radialGradient4123);fill-opacity:1;stroke-width:0.26458332"
       d="m 59.187082,59.543083 c -9.53017,2.510129 -19.00646,5.942981 -26.90482,11.95586 -6.55537,4.85566 -11.88852,12.48203 -11.27789,20.959444 0.37226,7.477133 4.08296,14.995903 10.76063,18.789773 4.68646,2.74613 10.13915,4.04712 15.51579,4.39289 5.66669,-0.0109 11.44573,0.11211 16.98298,-1.09771 -0.0671,-4.36946 0.13292,-9.05467 -0.0992,-13.22916 -6.42358,0.79829 -13.22656,1.02122 -19.389,-1.23197 -3.98397,-1.412811 -7.06413,-5.397542 -6.57049,-9.739961 -0.22399,-4.205168 2.85381,-7.789423 6.05786,-10.120325 5.27447,-3.738752 11.77271,-5.275508 18.02474,-6.5319 -1.00558,-4.718048 -1.94159,-9.477164 -2.97656,-14.171746 z"
       id="path3853" />
    <path
       inkscape:connector-curvature="0"
       style="fill:url(#radialGradient4125);fill-opacity:1;stroke-width:0.26458332"
       d="m 74.053362,88.382666 c 0,9.128125 0,18.256254 0,27.384374 10.31875,0 20.6375,0 30.956248,0 0,-4.23333 0,-8.46667 0,-12.7 -5.115278,0 -10.230558,0 -15.345838,0 0,-2.99861 0,-5.997222 0,-8.995833 4.32153,0 8.64306,0 12.964588,0 0,-3.96875 0,-7.9375 0,-11.90625 -4.321528,0 -8.643058,0 -12.964588,0 0,-3.086806 0,-6.173609 0,-9.260415 5.02709,0 10.05417,0 15.081248,0 0,-3.96875 0,-7.9375 0,-11.906251 -10.230548,0 -20.461108,0 -30.691658,0 0,9.128126 0,18.25625 0,27.384375 z"
       id="path3848" />
  </g>
</svg>
